<svg width="18" height="17" viewBox="0 0 18 17" fill="none" xmlns="http://www.w3.org/2000/svg">
<path d="M16.6445 0.936005H13.728C13.6696 0.936005 13.6136 0.959209 13.5723 1.00051C13.531 1.04182 13.5078 1.09783 13.5078 1.15625C13.5078 1.19378 13.5196 1.22735 13.5359 1.25797V2.93595C13.536 2.99744 13.5239 3.05835 13.5004 3.11517C13.4769 3.172 13.4424 3.22363 13.3989 3.26711C13.3555 3.3106 13.3038 3.34508 13.247 3.36858C13.1902 3.39208 13.1293 3.40415 13.0678 3.40408H12.1601C12.1031 3.40408 12.0466 3.39284 11.9938 3.371C11.9411 3.34916 11.8932 3.31716 11.8529 3.2768C11.8125 3.23645 11.7805 3.18855 11.7587 3.13582C11.7368 3.0831 11.7256 3.02659 11.7256 2.96953V1.28513C11.7547 1.24839 11.771 1.20312 11.772 1.15625C11.7721 1.12731 11.7664 1.09864 11.7554 1.07189C11.7443 1.04514 11.7281 1.02083 11.7076 1.00037C11.6872 0.979903 11.6629 0.963683 11.6361 0.952637C11.6094 0.941592 11.5807 0.93594 11.5518 0.936005H5.67292C5.61451 0.936005 5.55849 0.959209 5.51719 1.00051C5.47588 1.04182 5.45268 1.09783 5.45268 1.15625C5.45268 1.19032 5.46206 1.22143 5.47589 1.25056V2.9478C5.47589 3.00778 5.46408 3.06718 5.44112 3.1226C5.41817 3.17802 5.38452 3.22837 5.3421 3.27079C5.29969 3.3132 5.24933 3.34685 5.19391 3.36981C5.1385 3.39276 5.0791 3.40458 5.01911 3.40458H4.21321C4.09089 3.40458 3.97357 3.35598 3.88708 3.26949C3.80058 3.18299 3.75199 3.06568 3.75199 2.94335V1.26291C3.7716 1.23073 3.78233 1.19392 3.7831 1.15625C3.78316 1.12731 3.77751 1.09864 3.76647 1.07189C3.75542 1.04514 3.7392 1.02083 3.71874 1.00037C3.69827 0.979903 3.67397 0.963683 3.64722 0.952637C3.62047 0.941592 3.5918 0.93594 3.56286 0.936005H0.489862C0.360068 0.936136 0.23562 0.98772 0.143796 1.07945C0.0519713 1.17118 0.000261353 1.29558 0 1.42537V16.0096C0 16.2802 0.219747 16.5 0.489862 16.5H16.6445C16.7743 16.4997 16.8988 16.448 16.9905 16.356C17.0823 16.2641 17.1338 16.1395 17.1338 16.0096V1.42537C17.1336 1.29567 17.0819 1.17134 16.9902 1.07963C16.8985 0.987908 16.7742 0.936266 16.6445 0.936005ZM16.6445 16.0595H0.489862C0.483336 16.0595 0.476874 16.0582 0.47085 16.0557C0.464826 16.0532 0.459361 16.0495 0.454769 16.0449C0.450177 16.0402 0.44655 16.0347 0.444097 16.0287C0.441645 16.0226 0.440416 16.0162 0.440481 16.0096V5.01095H16.6933V16.0091C16.6935 16.0157 16.6923 16.0222 16.6899 16.0282C16.6875 16.0343 16.684 16.0398 16.6794 16.0445C16.6749 16.0492 16.6694 16.0529 16.6634 16.0555C16.6574 16.0581 16.651 16.0595 16.6445 16.0595Z" fill="white"/>
</svg>
